<svg xmlns="http://www.w3.org/2000/svg" viewBox="0 0 315.08 315.08"><defs><style>.cls-1{fill:#eee;}</style></defs><g id="Layer_2" data-name="Layer 2"><g id="Layer_1-2" data-name="Layer 1"><path class="cls-1" d="M304.89,140.88A81.4,81.4,0,0,1,294,100.16V78.77l-17.66-9.2a81.48,81.48,0,0,1-29.81-29.81L236.31,21.1l-20.39,1A81.4,81.4,0,0,1,175.2,11.19L157.54,0,139.88,11.19A81.4,81.4,0,0,1,99.16,22.1l-20.39-1L68.57,39.76A81.48,81.48,0,0,1,38.76,69.57L21.1,78.77v21.39a81.4,81.4,0,0,1-10.91,40.72L0,157.54,10.19,176.2A81.4,81.4,0,0,1,21.1,216.92v19.39l17.66,11.2a81.48,81.48,0,0,1,29.81,29.81L78.77,294l20.39,1a81.4,81.4,0,0,1,40.72,10.91l17.66,9.19,17.66-9.19A81.4,81.4,0,0,1,215.92,295l20.39-1,10.2-16.66a81.48,81.48,0,0,1,29.81-29.81L294,236.31V216.92a81.4,81.4,0,0,1,10.91-40.72l10.19-18.66ZM157.54,278A120.5,120.5,0,1,1,278,157.54,120.63,120.63,0,0,1,157.54,278Z"/><ellipse class="cls-1" cx="157.54" cy="157.54" rx="95.39" ry="97.57"/></g></g></svg>