<!-- Generator: Adobe Illustrator 24.2.1, SVG Export Plug-In  -->
<svg id="content" version="1.1" xmlns="http://www.w3.org/2000/svg" xmlns:xlink="http://www.w3.org/1999/xlink" viewBox="0 0 95 53.6" style="overflow:visible;enable-background:new 0 0 95 53.6;" xml:space="preserve">
<path d="M8.6,33.3c0,13,5.7,20.3,18.2,20.3c9,0,16-5.2,19.3-13.4c0-0.1,0.1-0.1,0.1-0.1v0.1c4.3,8.3,13.1,13.4,25.4,13.4
	c13,0,23.3-6.7,23.3-16.6c0-7.2-4.5-11.5-13.6-15.7c-1.3-0.6-4.1-1.9-5.3-2.6c-4.7-2.3-7.5-4.4-7.5-8.6c0-4.5,4-7.5,9.4-7.5
	c8.4,0,11.7,6.2,14,13h2.1L92.8,0.7h-1.6L91,1c-1.1,1.3-2.4,1.3-4.6,0.6C83.8,0.7,80.9,0,77.6,0C67.5,0,60,6.3,60,14.3
	c0,6.8,4,11.2,11.9,14.7c1.1,0.5,3.8,1.8,5.2,2.4c4.6,2.2,8.4,4.4,8.4,9.4c0,6.4-6.6,10-13.7,10c-11.4,0-17.9-7.4-17.9-20V1.5H34
	v2.1h0.6c7.7,0.7,8.6,2.1,8.6,10v17.1c0,12.1-5,19.3-13.2,19.3c-7.5,0-10.3-5.8-10.3-15.9V1.5H0v2.1h0.5c7.2,0.7,8.3,1.6,8.3,9.7v20
	L8.6,33.3z"/>
</svg>
