<svg xmlns="http://www.w3.org/2000/svg" viewBox="0 0 1095.7 1251.86"><defs><style>.cls-1{fill:#52006f;}.cls-2{fill:#009fa7;}</style></defs><g id="Layer_2" data-name="Layer 2"><g id="Layer_1-2" data-name="Layer 1"><path class="cls-1" d="M1095.7,1184.54v-5.19h0l-.53-291.26h0v-4h0l-.37-171.23V701.34h0v-7.57c-2.68-142.53-59.84-276.49-161-377.22-7.35-7.33-14.84-14.38-22.24-21l-3.34-3L909,701.7h-.19v2a360.27,360.27,0,0,1-48,180.85h0l-.57,1A365,365,0,0,1,730.66,1016l-1.77,1a360.44,360.44,0,0,1-180.71,48.69h-.74a360,360,0,0,1-180.17-48h0A362.11,362.11,0,0,1,186.11,705.09v-.6A359.11,359.11,0,0,1,291.43,449.37,365.77,365.77,0,0,1,366,391.71h0A361.09,361.09,0,0,1,546.75,343c4.2,0,8.44.07,12.58.2h.11c1.94.06,3.9.13,5.87.23s4.21.23,6.27.36l5.58.4c2,.17,4,.34,6,.54s3.87.4,5.84.64c1.29.13,2.58.29,3.91.47.6.05,1.2.14,1.83.22l.25,0c6.85.9,13,1.88,18.86,3,1.43.26,2.86.53,4.31.83a357.75,357.75,0,0,1,42.93,11.3c1.22.39,2.44.79,3.68,1.22,2.67.91,6.18,2.13,9.69,3.48,2.53.93,4.75,1.79,6.81,2.64,1.7.66,3.44,1.36,5.13,2.06,1.33.55,2.66,1.14,4,1.72l.15.06c2,.82,4.11,1.76,6.71,3,3.65,1.67,6.63,3.08,9.38,4.44q3.06,1.51,6.11,3.08c1.1.56,2.2,1.13,3.28,1.7,3.71,1.95,7.39,4,11.24,6.21l.09.05.05,0,.37.21,2.9,1.45L730.3,188.1l-1.34-.47A545.86,545.86,0,0,0,548.4,157h-4v0a546.44,546.44,0,0,0-177.72,30.42h0l-2.66.94h0l-1.33.48h0C286.09,216.18,217.77,259.64,159.62,318,56.89,421.17.26,558,0,703.47H0v2H0v2H0c.79,145.46,58,282,161.08,384.78,58.4,58.17,126.88,101.39,203.55,128.48h0l1.34.47h0l2.63.92h0a547,547,0,0,0,177.83,29.72h4a547.63,547.63,0,0,0,177.81-30.45v0l2.66-.94,1.08-.39.25-.09h0a541.68,541.68,0,0,0,177.5-105.19l.26,137.08H1095.7v-67.32Z"/><path class="cls-2" d="M730.7,390.3l-.41-.23q-3.37-1.94-6.83-3.84c-2-1.08-4-2.16-6-3.19-.57-.3-1.17-.62-1.77-.92-2-1-4.09-2.09-6.13-3.08s-4.39-2.14-6.62-3.17c-3.17-1.5-6.39-2.92-9.61-4.3l-2.64-1.13c-2.21-.94-4.42-1.86-6.65-2.73s-4.55-1.8-6.84-2.65c-3.22-1.24-6.49-2.39-9.75-3.49-2.94-1-5.91-2-8.85-2.87a3,3,0,0,0-.48-.16c-1.66-.53-3.34-1-5-1.54-1.11-.35-2.23-.67-3.36-1-.3-.07-.55-.19-.83-.25-2.18-.62-4.36-1.22-6.57-1.77l-5.4-1.38c-5.43-1.34-10.87-2.55-16.37-3.63-1.44-.3-2.87-.58-4.32-.83-1.17-.23-2.34-.44-3.51-.65-2-.32-4-.66-5.93-1-.62-.09-1.25-.21-1.89-.3l-3.42-.51-4.21-.57c-.76-.12-1.45-.21-2.16-.28-.41,0-.83-.11-1.24-.16l-2.35-.27-.3,0c-1-.13-2-.23-2.91-.34l-4.42-.44c-.71-.07-1.45-.14-2.16-.18-1.12-.12-2.25-.21-3.35-.3-1.5-.11-3-.23-4.46-.3a.9.9,0,0,0-.23,0c-.58,0-1.15-.07-1.75-.12-1.52-.09-3-.18-4.55-.25-.32,0-.64,0-1-.05-1.7-.06-3.4-.11-5.05-.18-2-.07-4-.11-6-.16-2.21,0-4.44-.05-6.65-.05A361.68,361.68,0,0,0,367,391a367.14,367.14,0,0,0-75,58C223.52,517.71,185.94,609,186.1,706.09a363.59,363.59,0,0,0,545.8,313.7h0A363,363,0,0,0,912.8,704.7h0c0-3,0-6.07-.14-9.09,0-1.88-.1-3.79-.2-5.7,0-.34,0-.68,0-1-.07-1.31-.13-2.59-.2-3.9-.17-2.78-.34-5.6-.57-8.39.27,2.79.43,5.57.57,8.39V74A721,721,0,0,0,730.3,0V190.52l.4,199.79m.65,344.6c-.32,2-.67,4-1.06,6A183.9,183.9,0,0,1,568.71,888.15h-.05c-6,.58-12.14.9-18.25.92h-.62q-8.89,0-17.65-.85A183.74,183.74,0,0,1,367.68,727.56v-.14a187.77,187.77,0,0,1-1.31-21.68A191.49,191.49,0,0,1,367.61,684v-.11A183.75,183.75,0,0,1,549.1,521.75h.58A183.67,183.67,0,0,1,730.29,670.14c.34,1.7.69,3.45.94,5.2m0,0v0a184.85,184.85,0,0,1,2.45,29.71h0a184.66,184.66,0,0,1-2.34,29.78M907.7,644.18c.43,2.52.83,5,1.17,7.52C908.5,649.18,908.13,646.7,907.7,644.18Z"/></g></g></svg>